<?xml version="1.0" encoding="utf-8"?>
<!-- Generator: Adobe Illustrator 19.1.0, SVG Export Plug-In . SVG Version: 6.00 Build 0)  -->
<svg version="1.1" xmlns="http://www.w3.org/2000/svg" xmlns:xlink="http://www.w3.org/1999/xlink" x="0px" y="0px"
	 viewBox="-40 -120 450 450" enable-background="new -40 -120 450 450" xml:space="preserve">
<g id="logo.svg">
	<g>
	<polygon fill="#702784" points="0,146.8984 0,186.9941 8.9424,186.9941 8.9424,137.9522 	"/>
	<path fill="#702784" d="M54.7026,149.002c-2.5722,0-8.0205,0.2519-11.8857,5.7656c-3.4297-5.3125-8.6074-5.7656-10.6084-5.7656
		c-6.3711,0-8.8935,3.1777-9.5986,4.3886h-0.1348v-3.1289h-8.1025v36.8008h8.8095v-18.3584c0-3.9346,0-11.6162,7.0264-11.6162
		c5.4463,0,7.3799,4.5225,7.3799,9.5654v20.4092h8.8262v-18.3584c0-2.3193-0.0664-5.9678,1.3437-8.1699
		c1.2285-2.1026,3.5977-3.4463,6.0869-3.4463c6.9424,0,6.9424,7.4297,6.9424,9.5654v20.4092h8.8262v-21.4687
		c0-5.4473-1.3125-8.959-2.791-10.877C65.5112,152.8682,61.9146,149.002,54.7026,149.002"/>
	<path fill="#702784" d="M93.1441,180.168c-6.3038,0-10.9268-5.1094-10.9268-11.3457c0-5.4805,3.6973-11.75,10.9268-11.75
		c5.2275,0,10.7587,3.8652,10.7587,11.498C103.9028,175.3945,99.2456,180.168,93.1441,180.168 M104.1372,154.9199h-0.1162
		c-0.2519-0.5547-4.7236-5.9179-12.2217-5.9179c-10.1875,0-18.4238,8.1699-18.4238,19.4511
		c0,12.2539,8.4219,19.8028,17.9199,19.8028c4.6387,0,10.0528-2.4375,12.8418-5.7657v4.5713h8.1045v-36.7988h-8.1045V154.9199z"/>
	<path fill="#702784" d="M135.9331,180.1689c-5.3447,0-10.9941-4.3193-10.9941-11.8007c0-6.96,5.4306-11.2803,10.7607-11.2803
		c6.5547,0,10.791,5.9687,10.791,11.2129C146.4907,175.6465,141.2798,180.1689,135.9331,180.1689 M146.7603,154.7676h-0.1348
		c-0.9746-1.4785-4.1699-5.7656-11.7334-5.7656c-9.3467,0-18.7627,7.7656-18.7627,19.2988c0,12.3223,9.8857,19.9541,18.8301,19.9541
		c7.4961,0,10.875-4.2188,12.0693-5.917l0.1338,0.1514c-0.4707,8.0185-6.3037,11.4648-11.2627,11.4648
		c-1.4121,0-5.6474,0-9.1123-4.1025h-10.0527c3.1611,8.2216,10.9277,12.205,18.4931,12.205c6.959,0,20.1065-4.0507,20.1065-21.7539
		v-30.041h-8.5742V154.7676z"/>
	<path fill="#702784" d="M193.2207,148.9639c-5.5469,0-8.5898,3.0586-10.0693,4.4375v-3.1778h-8.1533v36.8008h8.8261v-17.5342
		c0-3.0771,0-6.9267,1.5957-9.1963c1.5801-2.4375,4.4395-3.2441,6.0352-3.2441c7.4316,0,7.4316,8.7578,7.4316,11.8184v18.1562
		h8.8086v-19.9053c0-2.8408,0-9.0107-3.3965-13.0615C201.2734,150.3584,196.4141,148.9639,193.2207,148.9639"/>
	<path fill="#702784" d="M231.3516,180.1299c-6.2871,0-10.9278-5.1094-10.9278-11.3457c0-5.4805,3.6993-11.75,10.9278-11.75
		c5.2617,0,10.7597,3.8652,10.7597,11.498C242.1113,175.3564,237.4707,180.1299,231.3516,180.1299 M242.3789,154.8818h-0.1328
		c-0.2695-0.5546-4.7422-5.9179-12.2051-5.9179c-10.2207,0-18.4433,8.1699-18.4433,19.4511
		c0,12.2539,8.4238,19.8028,17.9218,19.8028c4.6387,0,10.0684-2.4375,12.8594-5.7656v4.5712h8.1035v-36.7988h-8.1035V154.8818z"/>
	<polygon fill="#702784" points="268.0586,137.9522 259.2168,137.9522 259.2168,150.2246 254.9141,150.2246 254.9141,158.0586
		259.2168,158.0586 259.2168,187.0234 268.0586,187.0234 268.0586,158.0586 273.3731,158.0586 273.3731,150.2246 268.0586,150.2246
			"/>
	<path fill="#702784" d="M309.3906,180.1309c-5.5664,0-10.8105-4.5225-10.8105-11.4649c0-7.7158,6.2558-11.6162,10.8105-11.6162
		c5.5137,0,10.7071,4.9766,10.7071,11.666C320.0977,174.5674,315.8281,180.1309,309.3906,180.1309 M309.3906,148.9639
		c-10.541,0-19.6191,8.5732-19.6191,19.7021c0,10.5225,8.6914,19.5508,19.6191,19.5508c10.2383,0,19.5176-7.6318,19.5176-19.6855
		C328.9082,157.252,319.8125,148.9639,309.3906,148.9639"/>
	<path fill="#702784" d="M350.6572,148.9639c-5.5644,0-8.6074,3.0586-10.0703,4.4375v-3.1778h-8.1699v36.8008h8.8262v-17.5342
		c0-3.0771,0-6.9267,1.5957-9.1963c1.5957-2.4375,4.4394-3.2441,6.0351-3.2441c7.4297,0,7.4297,8.7578,7.4297,11.8184v18.1562
		h8.8106v-19.9053c0-2.8408,0-9.0107-3.3965-13.0615C358.6924,150.3584,353.8486,148.9639,350.6572,148.9639"/>
	<rect x="160.6914" y="150.2246" fill="#702784" width="8.8926" height="36.833"/>
	<rect x="277.2988" y="150.2246" fill="#702784" width="8.8926" height="36.833"/>
	</g>
	<g>
		<path fill="#702784" d="M184.3135,27.3779c1.8418,3.9649,3.2558,8.168,4.1641,12.5537h66.9746v72.0899h-72.0879V51.9248
			c0-0.0781,0.0039-0.1548,0.0039-0.2339c0-0.0708-0.0039-0.1401-0.0039-0.2109v-1.2681
			c-0.2334-8.2339-2.3916-15.9922-6.0547-22.834h-0.0313C168.5635,11.1011,151.3955,0,131.6777,0
			c-28.5019,0-51.6904,23.189-51.6904,51.6909c0,28.503,23.1885,51.6909,51.6904,51.6909c12.4776,0,23.9366-4.4443,32.876-11.831
			l0.0078-18.6787c-6.9756,10.792-19.1045,17.956-32.8838,17.956c-21.58,0-39.1357-17.5571-39.1357-39.1372
			s17.5557-39.1362,39.1357-39.1362c21.5088,0,39.0166,17.4424,39.1319,38.9253v73.0962h97.1992V27.3779H184.3135z"/>
	</g>
</g>
</svg>
